<svg xmlns="http://www.w3.org/2000/svg" xmlns:xlink="http://www.w3.org/1999/xlink" width="500" zoomAndPan="magnify" viewBox="0 0 375 374.999991" height="500" preserveAspectRatio="xMidYMid meet" version="1.0"><defs><g/><clipPath id="8894c643f1"><path d="M 124.738281 97.226562 L 249.988281 97.226562 L 249.988281 213.476562 L 124.738281 213.476562 Z M 124.738281 97.226562 " clip-rule="nonzero"/></clipPath></defs><rect x="-37.5" width="450" fill="#ffffff" y="-37.499999" height="449.999989" fill-opacity="1"/><rect x="-37.5" width="450" fill="#ffffff" y="-37.499999" height="449.999989" fill-opacity="1"/><g clip-path="url(#8894c643f1)"><path fill="#ff3131" d="M 250.210938 164.738281 L 250.210938 187.839844 C 250.210938 189.015625 250.113281 190.183594 249.917969 191.339844 C 249.71875 192.5 249.425781 193.632812 249.039062 194.742188 C 248.652344 195.855469 248.175781 196.921875 247.609375 197.953125 C 247.042969 198.980469 246.390625 199.957031 245.660156 200.878906 C 244.929688 201.796875 244.128906 202.652344 243.253906 203.4375 C 242.378906 204.222656 241.445312 204.929688 240.453125 205.554688 C 239.457031 206.183594 238.417969 206.726562 237.335938 207.179688 C 236.25 207.632812 235.136719 207.992188 233.992188 208.261719 C 233.976562 208.621094 233.925781 208.980469 233.839844 209.335938 C 233.753906 209.6875 233.636719 210.03125 233.484375 210.359375 C 233.332031 210.691406 233.148438 211.003906 232.9375 211.296875 C 232.722656 211.589844 232.484375 211.863281 232.21875 212.113281 C 231.953125 212.359375 231.667969 212.582031 231.359375 212.773438 C 231.050781 212.964844 230.726562 213.125 230.386719 213.257812 C 230.046875 213.386719 229.699219 213.480469 229.339844 213.542969 C 228.980469 213.605469 228.621094 213.632812 228.257812 213.625 C 227.894531 213.613281 227.535156 213.570312 227.179688 213.492188 C 226.824219 213.414062 226.480469 213.304688 226.148438 213.160156 C 225.8125 213.015625 225.496094 212.839844 225.199219 212.632812 C 224.898438 212.425781 224.621094 212.191406 224.367188 211.933594 C 224.113281 211.671875 223.886719 211.390625 223.6875 211.085938 C 223.488281 210.78125 223.320312 210.460938 223.183594 210.125 C 223.046875 209.789062 222.945312 209.441406 222.875 209.082031 C 222.808594 208.726562 222.773438 208.367188 222.773438 208.003906 L 222.773438 167.546875 C 222.777344 167.179688 222.816406 166.816406 222.890625 166.457031 C 222.964844 166.09375 223.070312 165.746094 223.214844 165.40625 C 223.355469 165.066406 223.53125 164.742188 223.734375 164.4375 C 223.941406 164.132812 224.175781 163.847656 224.433594 163.589844 C 224.695312 163.328125 224.976562 163.097656 225.285156 162.890625 C 225.589844 162.6875 225.914062 162.511719 226.253906 162.371094 C 226.589844 162.226562 226.941406 162.121094 227.300781 162.046875 C 227.664062 161.972656 228.027344 161.933594 228.394531 161.929688 C 228.765625 161.925781 229.132812 161.957031 229.5 162.027344 C 229.863281 162.09375 230.21875 162.199219 230.5625 162.339844 C 230.90625 162.476562 231.230469 162.652344 231.539062 162.855469 C 231.847656 163.0625 232.132812 163.296875 232.394531 163.558594 C 232.65625 163.820312 232.890625 164.105469 233.09375 164.414062 C 233.300781 164.726562 233.472656 165.050781 233.609375 165.394531 C 233.75 165.738281 233.851562 166.09375 233.917969 166.460938 C 233.988281 166.824219 234.015625 167.191406 234.011719 167.5625 C 237.703125 168.449219 240.933594 170.1875 243.710938 172.777344 L 243.710938 164.738281 C 243.664062 158.117188 242.515625 151.695312 240.265625 145.46875 C 238.222656 140.238281 235.542969 135.132812 232.085938 130.667969 C 231.210938 130.917969 230.316406 131.046875 229.40625 131.046875 C 227.222656 131.046875 225.191406 130.152344 223.535156 128.625 L 223.40625 128.496094 C 218.699219 123.636719 213.210938 119.9375 206.941406 117.390625 C 203.84375 116.128906 200.652344 115.171875 197.367188 114.527344 C 194.082031 113.882812 190.765625 113.5625 187.417969 113.5625 C 184.070312 113.5625 180.753906 113.882812 177.46875 114.527344 C 174.183594 115.171875 170.988281 116.128906 167.890625 117.390625 C 161.683594 120.027344 156.195312 123.730469 151.425781 128.496094 L 151.171875 128.75 C 150.40625 129.449219 149.535156 129.988281 148.566406 130.363281 C 147.597656 130.742188 146.59375 130.929688 145.554688 130.933594 C 144.644531 130.929688 143.753906 130.804688 142.878906 130.550781 C 139.367188 135.054688 136.640625 139.988281 134.695312 145.355469 C 132.394531 151.566406 131.253906 157.988281 131.28125 164.613281 L 131.28125 172.652344 C 132.699219 171.285156 134.285156 170.148438 136.035156 169.238281 C 137.785156 168.328125 139.628906 167.6875 141.566406 167.3125 C 141.578125 166.941406 141.625 166.578125 141.710938 166.21875 C 141.792969 165.863281 141.910156 165.515625 142.0625 165.179688 C 142.214844 164.84375 142.398438 164.527344 142.613281 164.226562 C 142.828125 163.925781 143.070312 163.652344 143.339844 163.398438 C 143.609375 163.148438 143.898438 162.925781 144.214844 162.730469 C 144.527344 162.535156 144.855469 162.375 145.199219 162.242188 C 145.542969 162.113281 145.898438 162.019531 146.261719 161.960938 C 146.625 161.898438 146.992188 161.875 147.359375 161.886719 C 147.730469 161.898438 148.09375 161.949219 148.453125 162.03125 C 148.808594 162.113281 149.15625 162.234375 149.492188 162.386719 C 149.828125 162.539062 150.144531 162.722656 150.445312 162.9375 C 150.746094 163.152344 151.019531 163.390625 151.273438 163.660156 C 151.523438 163.929688 151.746094 164.222656 151.941406 164.535156 C 152.136719 164.847656 152.300781 165.175781 152.429688 165.523438 C 152.558594 165.867188 152.652344 166.222656 152.714844 166.585938 C 152.773438 166.949219 152.796875 167.3125 152.785156 167.683594 L 152.785156 208.003906 C 152.785156 208.363281 152.75 208.722656 152.683594 209.078125 C 152.613281 209.433594 152.511719 209.777344 152.375 210.113281 C 152.242188 210.445312 152.074219 210.765625 151.878906 211.070312 C 151.679688 211.371094 151.457031 211.652344 151.207031 211.914062 C 150.953125 212.171875 150.679688 212.40625 150.386719 212.613281 C 150.089844 212.820312 149.777344 212.996094 149.445312 213.140625 C 149.113281 213.289062 148.773438 213.402344 148.421875 213.484375 C 148.070312 213.5625 147.710938 213.609375 147.351562 213.621094 C 146.988281 213.632812 146.632812 213.609375 146.273438 213.550781 C 145.917969 213.492188 145.570312 213.402344 145.230469 213.277344 C 144.890625 213.152344 144.566406 212.996094 144.257812 212.808594 C 143.949219 212.621094 143.664062 212.40625 143.394531 212.160156 C 143.128906 211.917969 142.886719 211.652344 142.671875 211.363281 C 142.457031 211.074219 142.269531 210.765625 142.113281 210.4375 C 141.957031 210.113281 141.832031 209.777344 141.742188 209.425781 C 141.652344 209.078125 141.59375 208.722656 141.570312 208.359375 C 139.550781 207.949219 137.632812 207.253906 135.8125 206.28125 C 133.996094 205.304688 132.355469 204.089844 130.894531 202.632812 C 129.921875 201.664062 129.054688 200.609375 128.289062 199.464844 C 127.527344 198.324219 126.878906 197.117188 126.355469 195.847656 C 125.828125 194.578125 125.433594 193.269531 125.167969 191.921875 C 124.898438 190.574219 124.769531 189.214844 124.769531 187.839844 L 124.769531 164.738281 C 124.804688 157.378906 126.078125 150.234375 128.589844 143.3125 C 130.816406 137.207031 133.925781 131.585938 137.914062 126.453125 C 137.296875 125.34375 137 124.152344 137.023438 122.878906 C 137.011719 121.777344 137.214844 120.71875 137.636719 119.699219 C 138.054688 118.679688 138.660156 117.78125 139.445312 117.007812 C 140.625 115.835938 141.84375 114.710938 143.105469 113.628906 C 144.363281 112.546875 145.664062 111.511719 147 110.523438 C 148.335938 109.535156 149.703125 108.601562 151.109375 107.714844 C 152.515625 106.828125 153.949219 105.992188 155.414062 105.210938 C 156.882812 104.429688 158.375 103.703125 159.894531 103.03125 C 161.414062 102.359375 162.957031 101.746094 164.519531 101.1875 C 166.085938 100.628906 167.667969 100.125 169.269531 99.683594 C 170.867188 99.242188 172.484375 98.859375 174.113281 98.535156 C 175.742188 98.210938 177.382812 97.945312 179.03125 97.742188 C 180.679688 97.539062 182.332031 97.394531 183.992188 97.3125 C 185.652344 97.230469 187.3125 97.207031 188.972656 97.246094 C 190.632812 97.285156 192.289062 97.386719 193.945312 97.546875 C 195.597656 97.707031 197.242188 97.925781 198.878906 98.210938 C 200.515625 98.492188 202.140625 98.832031 203.753906 99.230469 C 205.367188 99.632812 206.960938 100.089844 208.539062 100.609375 C 210.117188 101.125 211.675781 101.699219 213.210938 102.332031 C 221.511719 105.753906 228.832031 110.644531 235.164062 117.007812 C 235.949219 117.78125 236.554688 118.679688 236.976562 119.699219 C 237.398438 120.71875 237.601562 121.777344 237.589844 122.878906 C 237.535156 124.132812 237.234375 125.324219 236.695312 126.453125 C 240.679688 131.585938 243.785156 137.207031 246.011719 143.3125 C 248.585938 150.226562 249.859375 157.375 249.828125 164.753906 Z M 250.210938 164.738281 " fill-opacity="1" fill-rule="nonzero"/></g><path fill="#ff3131" d="M 163.785156 184.433594 L 167.988281 184.433594 L 167.988281 206.339844 L 163.785156 206.339844 Z M 163.785156 184.433594 " fill-opacity="1" fill-rule="nonzero"/><path fill="#ff3131" d="M 172.429688 170.519531 L 176.632812 170.519531 L 176.632812 206.335938 L 172.429688 206.335938 Z M 172.429688 170.519531 " fill-opacity="1" fill-rule="nonzero"/><path fill="#ff3131" d="M 181.074219 175.847656 L 185.277344 175.847656 L 185.277344 206.339844 L 181.074219 206.339844 Z M 181.074219 175.847656 " fill-opacity="1" fill-rule="nonzero"/><path fill="#ff3131" d="M 189.714844 162.234375 L 193.917969 162.234375 L 193.917969 206.339844 L 189.714844 206.339844 Z M 189.714844 162.234375 " fill-opacity="1" fill-rule="nonzero"/><path fill="#ff3131" d="M 198.359375 170.519531 L 202.5625 170.519531 L 202.5625 206.335938 L 198.359375 206.335938 Z M 198.359375 170.519531 " fill-opacity="1" fill-rule="nonzero"/><path fill="#ff3131" d="M 207.003906 179.402344 L 211.203125 179.402344 L 211.203125 206.339844 L 207.003906 206.339844 Z M 207.003906 179.402344 " fill-opacity="1" fill-rule="nonzero"/><g fill="#ff3131" fill-opacity="1"><g transform="translate(78.377343, 256.855531)"><g><path d="M 2.34375 0 L 17.703125 0 L 17.703125 -5.296875 L 8.1875 -5.296875 L 8.1875 -26.515625 L 2.34375 -26.515625 Z M 2.34375 0 "/></g></g></g><g fill="#ff3131" fill-opacity="1"><g transform="translate(109.148358, 256.855531)"><g><path d="M 8.1875 0 L 8.1875 -26.515625 L 2.34375 -26.515625 L 2.34375 0 Z M 8.1875 0 "/></g></g></g><g fill="#ff3131" fill-opacity="1"><g transform="translate(131.378362, 256.855531)"><g><path d="M 8.1875 -11.859375 L 16.578125 0 L 24.453125 0 L 13.890625 -13.265625 L 24.0625 -26.515625 L 16.578125 -26.515625 L 8.1875 -14.65625 L 8.1875 -26.515625 L 2.34375 -26.515625 L 2.34375 0 L 8.1875 0 Z M 8.1875 -11.859375 "/></g></g></g><g fill="#ff3131" fill-opacity="1"><g transform="translate(167.141382, 256.855531)"><g><path d="M 8.109375 -5.375 L 8.109375 -21.09375 L 9.859375 -21.09375 C 14.390625 -21.09375 17.4375 -17.671875 17.4375 -13.265625 C 17.4375 -8.859375 14.359375 -5.375 9.859375 -5.375 Z M 2.34375 -26.515625 L 2.34375 0 L 10.21875 0 C 17.75 0 23.40625 -5.765625 23.40625 -13.265625 C 23.40625 -20.75 17.703125 -26.515625 10.21875 -26.515625 Z M 2.34375 -26.515625 "/></g></g></g><g fill="#ff3131" fill-opacity="1"><g transform="translate(203.606404, 256.855531)"><g><path d="M 16.765625 -10.140625 L 10.0625 -10.140625 L 13.421875 -19.578125 Z M 26.671875 0 L 15.90625 -26.515625 L 10.953125 -26.515625 L 0.1875 0 L 6.46875 0 L 8.390625 -5.34375 L 18.484375 -5.34375 L 20.390625 0 Z M 26.671875 0 "/></g></g></g><g fill="#ff3131" fill-opacity="1"><g transform="translate(242.177419, 256.855531)"><g><path d="M 13.609375 -21.21875 L 21.171875 -21.21875 L 21.171875 -26.515625 L 0.1875 -26.515625 L 0.1875 -21.21875 L 7.765625 -21.21875 L 7.765625 0 L 13.609375 0 Z M 13.609375 -21.21875 "/></g></g></g><g fill="#ff3131" fill-opacity="1"><g transform="translate(275.249446, 256.855531)"><g><path d="M 13.609375 -21.21875 L 21.171875 -21.21875 L 21.171875 -26.515625 L 0.1875 -26.515625 L 0.1875 -21.21875 L 7.765625 -21.21875 L 7.765625 0 L 13.609375 0 Z M 13.609375 -21.21875 "/></g></g></g></svg>